<svg width="26" height="26" viewBox="0 0 26 26" fill="none" xmlns="http://www.w3.org/2000/svg">
<path d="M25.7949 24.7149L19.2513 18.1713C21.1173 16.0254 22.0772 13.2388 21.9287 10.3989C21.7802 7.55901 20.5349 4.88772 18.4552 2.94812C16.3756 1.00852 13.6241 -0.0478552 10.7808 0.00166562C7.93745 0.0511864 5.22442 1.20274 3.21358 3.21358C1.20274 5.22442 0.0511864 7.93745 0.00166562 10.7808C-0.0478552 13.6241 1.00852 16.3756 2.94812 18.4552C4.88772 20.5349 7.55901 21.7802 10.3989 21.9287C13.2388 22.0772 16.0254 21.1173 18.1713 19.2513L24.7149 25.7949C24.8598 25.9299 25.0514 26.0034 25.2493 25.9999C25.4473 25.9964 25.6362 25.9162 25.7762 25.7762C25.9162 25.6362 25.9964 25.4473 25.9999 25.2493C26.0034 25.0514 25.9299 24.8598 25.7949 24.7149ZM1.56644 10.9909C1.56644 9.12691 2.11917 7.30478 3.15474 5.75494C4.19031 4.2051 5.66221 2.99714 7.38431 2.28383C9.1064 1.57052 11.0013 1.38388 12.8295 1.74752C14.6577 2.11117 16.3369 3.00876 17.655 4.32679C18.973 5.64483 19.8706 7.3241 20.2342 9.15227C20.5979 10.9804 20.4113 12.8754 19.6979 14.5975C18.9846 16.3196 17.7767 17.7915 16.2268 18.827C14.677 19.8626 12.8549 20.4153 10.9909 20.4153C8.4923 20.4123 6.09691 19.4184 4.33014 17.6516C2.56337 15.8849 1.56947 13.4895 1.56644 10.9909Z" fill="white"/>
</svg>
