<svg width="30" height="30" viewBox="0 0 30 30" fill="none" xmlns="http://www.w3.org/2000/svg">
<path d="M20.3294 10.9176L16.2471 15L20.3294 19.0823C20.4161 19.1631 20.4856 19.2605 20.5339 19.3688C20.5821 19.477 20.608 19.5938 20.6101 19.7123C20.6122 19.8308 20.5904 19.9485 20.546 20.0583C20.5016 20.1682 20.4356 20.268 20.3518 20.3518C20.268 20.4356 20.1682 20.5016 20.0584 20.546C19.9485 20.5904 19.8308 20.6122 19.7123 20.6101C19.5939 20.608 19.477 20.5821 19.3688 20.5339C19.2605 20.4856 19.1631 20.4161 19.0824 20.3294L15 16.2471L10.9177 20.3294C10.7504 20.4853 10.5292 20.5701 10.3006 20.5661C10.072 20.562 9.85388 20.4694 9.69221 20.3078C9.53055 20.1461 9.43795 19.928 9.43392 19.6994C9.42988 19.4708 9.51473 19.2496 9.67059 19.0823L13.7529 15L9.67059 10.9176C9.51473 10.7504 9.42988 10.5291 9.43392 10.3006C9.43795 10.072 9.53055 9.85387 9.69221 9.69221C9.85388 9.53055 10.072 9.43794 10.3006 9.43391C10.5292 9.42988 10.7504 9.51473 10.9177 9.67059L15 13.7529L19.0824 9.67059C19.2496 9.51473 19.4708 9.42988 19.6994 9.43391C19.928 9.43794 20.1461 9.53055 20.3078 9.69221C20.4695 9.85387 20.5621 10.072 20.5661 10.3006C20.5701 10.5291 20.4853 10.7504 20.3294 10.9176ZM30 15C30 17.9667 29.1203 20.8668 27.472 23.3335C25.8238 25.8003 23.4811 27.7229 20.7403 28.8582C17.9994 29.9935 14.9834 30.2906 12.0736 29.7118C9.16393 29.133 6.49119 27.7044 4.3934 25.6066C2.29562 23.5088 0.867006 20.8361 0.288228 17.9263C-0.290551 15.0166 0.00649901 12.0006 1.14181 9.25975C2.27713 6.51886 4.19971 4.17618 6.66645 2.52795C9.13319 0.879734 12.0333 0 15 0C18.9768 0.00467037 22.7894 1.58652 25.6014 4.39856C28.4135 7.21059 29.9953 11.0232 30 15ZM28.2353 15C28.2353 12.3823 27.4591 9.82339 26.0047 7.64686C24.5504 5.47033 22.4834 3.77393 20.0649 2.77218C17.6465 1.77043 14.9853 1.50833 12.4179 2.01902C9.85053 2.5297 7.49223 3.79024 5.64124 5.64123C3.79025 7.49222 2.52971 9.85052 2.01902 12.4179C1.50834 14.9853 1.77044 17.6465 2.77219 20.0649C3.77394 22.4834 5.47034 24.5504 7.64687 26.0047C9.8234 27.459 12.3823 28.2353 15 28.2353C18.509 28.2314 21.8732 26.8357 24.3545 24.3545C26.8357 21.8732 28.2314 18.509 28.2353 15Z" fill="#9C9C9C"/>
</svg>
